<svg
   width="40.000004"
   height="40"
   viewBox="0 0 10.583334 10.583334"
   version="1.1"
   id="svg873"
   inkscape:version="1.1.2 (b8e25be833, 2022-02-05)"
   sodipodi:docname="drawing.svg"
   xmlns:inkscape="http://www.inkscape.org/namespaces/inkscape"
   xmlns:sodipodi="http://sodipodi.sourceforge.net/DTD/sodipodi-0.dtd"
   xmlns:xlink="http://www.w3.org/1999/xlink"
   xmlns="http://www.w3.org/2000/svg"
   xmlns:svg="http://www.w3.org/2000/svg">
  <sodipodi:namedview
     id="namedview875"
     pagecolor="#ffffff"
     bordercolor="#666666"
     borderopacity="1.0"
     inkscape:pageshadow="2"
     inkscape:pageopacity="0.0"
     inkscape:pagecheckerboard="0"
     inkscape:document-units="mm"
     showgrid="false"
     fit-margin-top="0"
     fit-margin-left="0"
     fit-margin-right="0"
     fit-margin-bottom="0"
     units="px"
     inkscape:zoom="0.76435185"
     inkscape:cx="-8.503937"
     inkscape:cy="202.13204"
     inkscape:window-width="1920"
     inkscape:window-height="1051"
     inkscape:window-x="-9"
     inkscape:window-y="-9"
     inkscape:window-maximized="1"
     inkscape:current-layer="layer1" />
  <defs
     id="defs870">
    <linearGradient
       inkscape:collect="always"
       xlink:href="#linearGradient4679"
       id="linearGradient1468"
       gradientUnits="userSpaceOnUse"
       gradientTransform="matrix(1.7201279,0,0,1.7367347,-45.8396,-35.783308)"
       x1="26.648937"
       y1="20.603781"
       x2="135.66525"
       y2="114.39767" />
    <linearGradient
       id="linearGradient4679">
      <stop
         style="stop-color:#5a9fd4;stop-opacity:1;"
         offset="0"
         id="stop4681" />
      <stop
         style="stop-color:#306998;stop-opacity:1;"
         offset="1"
         id="stop4683" />
    </linearGradient>
    <linearGradient
       inkscape:collect="always"
       xlink:href="#linearGradient4661"
       id="linearGradient1465"
       gradientUnits="userSpaceOnUse"
       gradientTransform="matrix(1.7166332,0,0,1.7332063,65.036885,71.326052)"
       x1="150.96111"
       y1="192.35176"
       x2="112.03144"
       y2="137.27299" />
    <linearGradient
       id="linearGradient4661">
      <stop
         style="stop-color:#ffd43b;stop-opacity:1;"
         offset="0"
         id="stop4663" />
      <stop
         style="stop-color:#ffe873;stop-opacity:1"
         offset="1"
         id="stop4665" />
    </linearGradient>
  </defs>
  <g
     inkscape:label="Layer 1"
     inkscape:groupmode="layer"
     id="layer1"
     transform="translate(-107.20833,-95.092954)">
    <g
       id="g1411"
       transform="matrix(0.02351852,0,0,0.02351852,107.20833,95.092954)">
      <path
         fill="#42afeb"
         d="m 217.79209,173.05964 c -3.91294,0 -7.08401,3.14839 -7.08401,7.03332 v 0 13.53739 c 0,3.8822 3.17107,7.03436 7.08401,7.03436 v 0 h 14.07039 c 3.91295,0 7.08917,-3.15216 7.08917,-7.03436 v 0 -13.53739 c 0,-3.88493 -3.17622,-7.03332 -7.08917,-7.03332 v 0 z m 34.58434,21.41998 c -2.93919,0 -5.32283,2.4077 -5.32283,5.36973 v 0 10.33007 c 0,2.96509 2.38364,5.3711 5.32283,5.3711 v 0 h 10.57151 c 2.93953,0 5.32111,-2.40601 5.32111,-5.3711 v 0 -10.33007 c 0,-2.96203 -2.38158,-5.36973 -5.32111,-5.36973 v 0 z m -65.67012,0 c -2.93817,0 -5.32216,2.4077 -5.32216,5.36973 v 0 10.33007 c 0,2.96509 2.38399,5.3711 5.32216,5.3711 v 0 h 10.5708 c 2.93781,0 5.32283,-2.40601 5.32283,-5.3711 v 0 -10.33007 c 0,-2.96203 -2.38502,-5.36973 -5.32283,-5.36973 v 0 z m 31.08578,11.84875 c -3.91294,0 -7.08401,3.14668 -7.08401,7.03403 v 0 13.53634 c 0,3.88425 3.17107,7.03538 7.08401,7.03538 v 0 h 14.07039 c 3.91295,0 7.08917,-3.15113 7.08917,-7.03538 v 0 -13.53634 c 0,-3.88735 -3.17622,-7.03403 -7.08917,-7.03403 v 0 z m 61.77894,6.3461 c -2.18592,0 -3.95779,1.78763 -3.95779,3.99527 v 0 7.6846 c 0,2.20284 1.77187,3.99184 3.95779,3.99184 v 0 h 7.86453 c 2.18456,0 3.9578,-1.789 3.9578,-3.99184 v 0 -7.6846 c 0,-2.20764 -1.77324,-3.99527 -3.9578,-3.99527 v 0 z m -117.00486,0 c -2.18528,0 -3.95919,1.78763 -3.95919,3.99527 v 0 7.6846 c 0,2.20284 1.77391,3.99184 3.95919,3.99184 v 0 h 7.86208 c 2.18802,0 3.95987,-1.789 3.95987,-3.99184 v 0 -7.6846 c 0,-2.20764 -1.77185,-3.99527 -3.95987,-3.99527 v 0 z m 89.81026,8.08783 c -2.93919,0 -5.32283,2.40394 -5.32283,5.3663 v 0 10.33349 c 0,2.96271 2.38364,5.36766 5.32283,5.36766 v 0 h 10.57151 c 2.93953,0 5.32111,-2.40495 5.32111,-5.36766 v 0 -10.33349 c 0,-2.96236 -2.38158,-5.3663 -5.32111,-5.3663 v 0 z m -65.67012,0 c -2.93817,0 -5.32216,2.40394 -5.32216,5.3663 v 0 10.33349 c 0,2.96271 2.38399,5.36766 5.32216,5.36766 v 0 h 10.5708 c 2.93781,0 5.32283,-2.40495 5.32283,-5.36766 v 0 -10.33349 c 0,-2.96236 -2.38502,-5.3663 -5.32283,-5.3663 v 0 z m 92.86472,13.01732 c -2.18592,0 -3.95779,1.78659 -3.95779,3.99149 v 0 7.68494 c 0,2.20319 1.77187,3.99252 3.95779,3.99252 v 0 h 7.86453 c 2.18456,0 3.9578,-1.78933 3.9578,-3.99252 v 0 -7.68494 c 0,-2.2049 -1.77324,-3.99149 -3.9578,-3.99149 v 0 z m -117.00486,0 c -2.18528,0 -3.95919,1.78659 -3.95919,3.99149 v 0 7.68494 c 0,2.20319 1.77391,3.99252 3.95919,3.99252 v 0 h 7.86208 c 2.18802,0 3.95987,-1.78933 3.95987,-3.99252 v 0 -7.68494 c 0,-2.2049 -1.77185,-3.99149 -3.95987,-3.99149 v 0 z m 55.22592,5.528 c -3.91294,0 -7.08401,3.14975 -7.08401,7.03505 v 0 13.53736 c 0,3.88462 3.17107,7.03199 7.08401,7.03199 v 0 h 14.07039 c 3.91295,0 7.08917,-3.14737 7.08917,-7.03199 v 0 -13.53736 c 0,-3.8853 -3.17622,-7.03505 -7.08917,-7.03505 v 0 z m 85.02057,5.78359 c -1.62555,0 -2.94057,1.32854 -2.94057,2.96508 v 0 5.70443 c 0,1.63654 1.31502,2.96272 2.94057,2.96272 v 0 H 308.65 c 1.62072,0 2.93469,-1.32618 2.93469,-2.96272 v 0 -5.70443 c 0,-1.63654 -1.31397,-2.96508 -2.93469,-2.96508 v 0 z m -161.45955,0 c -1.62317,0 -2.93816,1.32854 -2.93816,2.96508 v 0 5.70443 c 0,1.63654 1.31499,2.96272 2.93816,2.96272 v 0 h 5.83491 c 1.62418,0 2.93885,-1.32618 2.93885,-2.96272 v 0 -5.70443 c 0,-1.63654 -1.31467,-2.96508 -2.93885,-2.96508 v 0 z m 111.02332,1.95856 c -2.93919,0 -5.32283,2.40223 -5.32283,5.36527 v 0 10.33144 c 0,2.96509 2.38364,5.36938 5.32283,5.36938 v 0 h 10.57151 c 2.93953,0 5.32111,-2.40429 5.32111,-5.36938 v 0 -10.33144 c 0,-2.96304 -2.38158,-5.36527 -5.32111,-5.36527 v 0 z m -65.67012,0 c -2.93817,0 -5.32216,2.40223 -5.32216,5.36527 v 0 10.33144 c 0,2.96509 2.38399,5.36938 5.32216,5.36938 v 0 h 10.5708 c 2.93781,0 5.32283,-2.40429 5.32283,-5.36938 v 0 -10.33144 c 0,-2.96304 -2.38502,-5.36527 -5.32283,-5.36527 v 0 z m 92.86472,7.99259 c -2.18592,0 -3.95779,1.79139 -3.95779,3.99834 v 0 7.68288 c 0,2.20729 1.77187,3.99184 3.95779,3.99184 v 0 h 7.86453 c 2.18456,0 3.9578,-1.78455 3.9578,-3.99184 v 0 -7.68288 c 0,-2.20695 -1.77324,-3.99834 -3.9578,-3.99834 v 0 z m -117.00486,0 c -2.18528,0 -3.95919,1.79139 -3.95919,3.99834 v 0 7.68288 c 0,2.20729 1.77391,3.99184 3.95919,3.99184 v 0 h 7.86208 c 2.18802,0 3.95987,-1.78455 3.95987,-3.99184 v 0 -7.68288 c 0,-2.20695 -1.77185,-3.99834 -3.95987,-3.99834 v 0 z m 140.24649,7.42285 c -1.62555,0 -2.94057,1.3272 -2.94057,2.96374 v 0 5.70443 c 0,1.63346 1.31502,2.9651 2.94057,2.9651 v 0 H 308.65 c 1.62072,0 2.93469,-1.33164 2.93469,-2.9651 v 0 -5.70443 c 0,-1.63654 -1.31397,-2.96374 -2.93469,-2.96374 v 0 z m -161.45955,0 c -1.62317,0 -2.93816,1.3272 -2.93816,2.96374 v 0 5.70443 c 0,1.63346 1.31499,2.9651 2.93816,2.9651 v 0 h 5.83491 c 1.62418,0 2.93885,-1.33164 2.93885,-2.9651 v 0 -5.70443 c 0,-1.63654 -1.31467,-2.96374 -2.93885,-2.96374 v 0 z m 180.73096,5.69999 c -1.22528,0 -2.22078,1.00103 -2.22078,2.23642 v 0 4.30358 c 0,1.23161 0.9955,2.23471 2.22078,2.23471 v 0 h 4.40293 c 1.22048,0 2.21526,-1.0031 2.21526,-2.23471 v 0 -4.30358 c 0,-1.23539 -0.99478,-2.23642 -2.21526,-2.23642 v 0 z m -198.56763,0 c -1.22461,0 -2.21872,1.00103 -2.21872,2.23642 v 0 4.30358 c 0,1.23161 0.99411,2.23471 2.21872,2.23471 v 0 h 4.40016 c 1.22494,0 2.2163,-1.0031 2.2163,-2.23471 v 0 -4.30358 c 0,-1.23539 -0.99136,-2.23642 -2.2163,-2.23642 v 0 z"
         id="path836"
         style="stroke-width:0.389833" />
      <g
         id="g1400">
        <path
           style="fill:url(#linearGradient1468);fill-opacity:1;stroke-width:3.05778"
           d="M 167.92969,0.00281082 C 153.91385,0.06793434 140.52908,1.2632881 128.75185,3.3472609 94.057586,9.4765819 87.758461,22.305815 87.758461,45.965099 V 77.211816 H 169.74524 V 87.627382 H 87.758461 56.98953 c -23.827649,0 -44.691815,14.321798 -51.2178462,41.566738 -7.5277182,31.229 -7.8616278,50.71643 0,83.32456 5.8278802,24.2722 19.7457432,41.56673 43.5733922,41.56673 h 28.188922 v -37.45783 c 0,-27.06107 23.413862,-50.9312 51.217852,-50.9312 h 81.89123 c 22.79561,0 40.99339,-18.76918 40.99339,-41.66228 V 45.965099 c 0,-22.218887 -18.74415,-38.9096022 -40.99339,-42.6178381 C 196.55897,1.0027638 181.94549,-0.0623127 167.92969,0.00281082 Z M 123.59184,25.133957 c 8.46866,0 15.38447,7.02878 15.38447,15.671135 -3e-5,8.611724 -6.91581,15.575583 -15.38447,15.575583 -8.49904,0 -15.38446,-6.963859 -15.38446,-15.575583 -3e-5,-8.642355 6.88542,-15.671135 15.38446,-15.671135 z"
           id="path1948" />
        <path
           style="fill:url(#linearGradient1465);fill-opacity:1;stroke-width:3.05157"
           d="m 372.11228,194.486 v 36.33276 c 0,28.16828 -23.88128,51.87669 -51.11379,51.87669 h -81.72487 c -22.38583,0 -40.91011,19.15922 -40.91011,41.57764 v 77.9104 c 0,22.17374 19.28159,35.21609 40.91011,41.57764 25.89969,7.61553 50.73611,8.99185 81.72487,0 20.59855,-5.96395 40.9101,-17.96645 40.9101,-41.57764 v -31.18324 h -81.72486 v -10.3944 h 81.72486 40.91011 c 23.77924,0 32.64036,-16.58653 40.91008,-41.48229 8.54236,-25.6298 8.17888,-50.27698 0,-83.15527 C 437.85213,212.29592 426.62818,194.486 402.8187,194.486 Z m -45.96427,197.30308 c 8.48175,0 15.35321,6.94971 15.35321,15.54394 -3e-5,8.6248 -6.87146,15.63929 -15.35321,15.63929 -8.45151,0 -15.35321,-7.01449 -15.35321,-15.63929 0,-8.59423 6.9017,-15.54394 15.35321,-15.54394 z"
           id="path1950" />
      </g>
    </g>
  </g>
</svg>
